<svg width="134" height="62" viewBox="0 0 134 62" fill="none" xmlns="http://www.w3.org/2000/svg">
<rect width="121" height="22" transform="translate(13 20)" fill="white"/>
<path d="M20.134 36V25.878H27.085L27.078 27.6H22.185V30.057H26.434V31.744H22.171V34.257L27.155 34.264V36H20.134ZM35.6727 36H33.6357L31.6827 32.878L30.7237 33.9V36H28.6797V25.598H30.7237V31.765L33.3837 28.762H35.5817L32.9497 31.646L35.6727 36ZM39.1245 36.126C38.5925 36.126 38.1701 36.063 37.8575 35.937C37.5448 35.811 37.3138 35.6453 37.1645 35.44C37.0151 35.23 36.9195 34.999 36.8775 34.747C36.8355 34.4903 36.8145 34.2313 36.8145 33.97V25.598H38.8165V33.718C38.8165 33.984 38.8725 34.201 38.9845 34.369C39.1011 34.5323 39.3181 34.6327 39.6355 34.67L39.9785 34.691V35.951C39.8385 35.9977 39.6961 36.0373 39.5515 36.07C39.4068 36.1073 39.2645 36.126 39.1245 36.126ZM43.3988 36.14C42.9368 36.14 42.5215 36.0537 42.1528 35.881C41.7842 35.7083 41.4925 35.4587 41.2778 35.132C41.0632 34.8007 40.9558 34.3993 40.9558 33.928C40.9558 33.1347 41.2522 32.5327 41.8448 32.122C42.4375 31.7067 43.3732 31.492 44.6518 31.478L45.5548 31.464V31.03C45.5548 30.6987 45.4568 30.4443 45.2608 30.267C45.0695 30.085 44.7708 29.9963 44.3648 30.001C44.0662 30.0057 43.7815 30.0757 43.5108 30.211C43.2448 30.3463 43.0628 30.582 42.9648 30.918H41.2638C41.2918 30.3953 41.4435 29.966 41.7188 29.63C41.9942 29.2893 42.3675 29.0373 42.8388 28.874C43.3148 28.706 43.8538 28.622 44.4558 28.622C45.1978 28.622 45.7928 28.7153 46.2408 28.902C46.6888 29.084 47.0132 29.3477 47.2138 29.693C47.4145 30.0337 47.5148 30.4397 47.5148 30.911V36H45.8068L45.6388 34.754C45.3915 35.2767 45.0812 35.6383 44.7078 35.839C44.3392 36.0397 43.9028 36.14 43.3988 36.14ZM44.0848 34.796C44.2715 34.796 44.4512 34.7633 44.6238 34.698C44.8012 34.628 44.9575 34.537 45.0928 34.425C45.2328 34.3083 45.3448 34.1777 45.4288 34.033C45.5128 33.8883 45.5548 33.739 45.5548 33.585V32.514L44.8198 32.528C44.4792 32.5327 44.1618 32.5747 43.8678 32.654C43.5738 32.7287 43.3358 32.8523 43.1538 33.025C42.9765 33.1977 42.8878 33.431 42.8878 33.725C42.8878 34.061 43.0045 34.3247 43.2378 34.516C43.4712 34.7027 43.7535 34.796 44.0848 34.796ZM55.2875 28.762L52.5715 36H51.0945L48.3715 28.762H50.2195L51.8015 33.375H51.8575L53.4185 28.762H55.2875ZM57.752 38.31C57.2573 38.31 56.9073 38.268 56.702 38.184C56.5013 38.1047 56.401 38.065 56.401 38.065V36.763L57.115 36.791C57.4277 36.8097 57.6797 36.7933 57.871 36.742C58.0623 36.6953 58.207 36.6323 58.305 36.553C58.4077 36.4737 58.48 36.3897 58.522 36.301C58.564 36.217 58.5943 36.1493 58.613 36.098L58.746 35.699L55.932 28.762H57.955L59.691 33.48L61.448 28.762H63.443L60.51 36.042C60.258 36.658 59.992 37.1293 59.712 37.456C59.432 37.7827 59.1287 38.0067 58.802 38.128C58.48 38.2493 58.13 38.31 57.752 38.31ZM66.2992 36.14C65.8372 36.14 65.4219 36.0537 65.0532 35.881C64.6846 35.7083 64.3929 35.4587 64.1782 35.132C63.9636 34.8007 63.8562 34.3993 63.8562 33.928C63.8562 33.1347 64.1526 32.5327 64.7452 32.122C65.3379 31.7067 66.2736 31.492 67.5522 31.478L68.4552 31.464V31.03C68.4552 30.6987 68.3572 30.4443 68.1612 30.267C67.9699 30.085 67.6712 29.9963 67.2652 30.001C66.9666 30.0057 66.6819 30.0757 66.4112 30.211C66.1452 30.3463 65.9632 30.582 65.8652 30.918H64.1642C64.1922 30.3953 64.3439 29.966 64.6192 29.63C64.8946 29.2893 65.2679 29.0373 65.7392 28.874C66.2152 28.706 66.7542 28.622 67.3562 28.622C68.0982 28.622 68.6932 28.7153 69.1412 28.902C69.5892 29.084 69.9136 29.3477 70.1142 29.693C70.3149 30.0337 70.4152 30.4397 70.4152 30.911V36H68.7072L68.5392 34.754C68.2919 35.2767 67.9816 35.6383 67.6082 35.839C67.2396 36.0397 66.8032 36.14 66.2992 36.14ZM66.9852 34.796C67.1719 34.796 67.3516 34.7633 67.5242 34.698C67.7016 34.628 67.8579 34.537 67.9932 34.425C68.1332 34.3083 68.2452 34.1777 68.3292 34.033C68.4132 33.8883 68.4552 33.739 68.4552 33.585V32.514L67.7202 32.528C67.3796 32.5327 67.0622 32.5747 66.7682 32.654C66.4742 32.7287 66.2362 32.8523 66.0542 33.025C65.8769 33.1977 65.7882 33.431 65.7882 33.725C65.7882 34.061 65.9049 34.3247 66.1382 34.516C66.3716 34.7027 66.6539 34.796 66.9852 34.796ZM76.2846 36.14C75.7853 36.14 75.2953 36.077 74.8146 35.951C74.3339 35.825 73.8953 35.636 73.4986 35.384C73.1019 35.132 72.7729 34.817 72.5116 34.439C72.2549 34.061 72.1009 33.6177 72.0496 33.109H74.1426C74.2126 33.417 74.3456 33.676 74.5416 33.886C74.7376 34.096 74.9849 34.257 75.2836 34.369C75.5823 34.481 75.9136 34.537 76.2776 34.537C76.6509 34.537 76.9916 34.4903 77.2996 34.397C77.6076 34.3037 77.8549 34.1637 78.0416 33.977C78.2283 33.7857 78.3216 33.5477 78.3216 33.263C78.3216 33.0063 78.2446 32.7963 78.0906 32.633C77.9413 32.4697 77.7383 32.3367 77.4816 32.234C77.2249 32.1313 76.9333 32.0473 76.6066 31.982L74.8566 31.625C74.0913 31.4803 73.4846 31.177 73.0366 30.715C72.5886 30.2483 72.3576 29.6277 72.3436 28.853C72.3389 28.2183 72.5069 27.67 72.8476 27.208C73.1929 26.7413 73.6596 26.382 74.2476 26.13C74.8403 25.878 75.5029 25.752 76.2356 25.752C77.1083 25.752 77.8409 25.8897 78.4336 26.165C79.0309 26.4357 79.4836 26.8043 79.7916 27.271C80.1043 27.733 80.2653 28.2487 80.2746 28.818H78.2236C78.1863 28.4633 78.0789 28.181 77.9016 27.971C77.7243 27.761 77.4956 27.6093 77.2156 27.516C76.9403 27.4227 76.6253 27.376 76.2706 27.376C75.9999 27.376 75.7526 27.4063 75.5286 27.467C75.3093 27.5277 75.1226 27.614 74.9686 27.726C74.8146 27.8333 74.6956 27.9617 74.6116 28.111C74.5276 28.2603 74.4856 28.4283 74.4856 28.615C74.4856 28.909 74.5836 29.147 74.7796 29.329C74.9756 29.511 75.3419 29.6603 75.8786 29.777L77.6146 30.134C78.2353 30.2553 78.7276 30.435 79.0916 30.673C79.4603 30.911 79.7356 31.1793 79.9176 31.478C80.1043 31.7767 80.2256 32.0823 80.2816 32.395C80.3423 32.703 80.3726 32.9877 80.3726 33.249C80.3726 33.795 80.1999 34.2873 79.8546 34.726C79.5139 35.16 79.0379 35.5053 78.4266 35.762C77.8153 36.014 77.1013 36.14 76.2846 36.14ZM84.9576 36.14C84.2483 36.14 83.6299 35.9883 83.1026 35.685C82.5799 35.3817 82.1739 34.9523 81.8846 34.397C81.5999 33.8417 81.4576 33.1837 81.4576 32.423C81.4576 31.6623 81.5999 30.9973 81.8846 30.428C82.1739 29.8587 82.5799 29.4153 83.1026 29.098C83.6299 28.7807 84.2506 28.622 84.9646 28.622C85.6786 28.622 86.2969 28.7783 86.8196 29.091C87.3423 29.399 87.7459 29.8377 88.0306 30.407C88.3153 30.9763 88.4576 31.6483 88.4576 32.423C88.4576 33.151 88.3176 33.795 88.0376 34.355C87.7623 34.9103 87.3633 35.3467 86.8406 35.664C86.3226 35.9813 85.6949 36.14 84.9576 36.14ZM84.9646 34.621C85.3239 34.621 85.6133 34.516 85.8326 34.306C86.0519 34.096 86.2106 33.8207 86.3086 33.48C86.4113 33.1347 86.4626 32.759 86.4626 32.353C86.4626 31.9703 86.4159 31.6087 86.3226 31.268C86.2339 30.9273 86.0799 30.652 85.8606 30.442C85.6413 30.232 85.3426 30.127 84.9646 30.127C84.6053 30.127 84.3136 30.2273 84.0896 30.428C83.8703 30.624 83.7093 30.8923 83.6066 31.233C83.5039 31.569 83.4526 31.9423 83.4526 32.353C83.4526 32.731 83.4993 33.095 83.5926 33.445C83.6859 33.7903 83.8423 34.0727 84.0616 34.292C84.2809 34.5113 84.5819 34.621 84.9646 34.621ZM92.1303 36.126C91.5983 36.126 91.176 36.063 90.8633 35.937C90.5506 35.811 90.3196 35.6453 90.1703 35.44C90.021 35.23 89.9253 34.999 89.8833 34.747C89.8413 34.4903 89.8203 34.2313 89.8203 33.97V25.598H91.8223V33.718C91.8223 33.984 91.8783 34.201 91.9903 34.369C92.107 34.5323 92.324 34.6327 92.6413 34.67L92.9843 34.691V35.951C92.8443 35.9977 92.702 36.0373 92.5573 36.07C92.4126 36.1073 92.2703 36.126 92.1303 36.126ZM96.9307 36.14C96.5947 36.14 96.2633 36.0887 95.9367 35.986C95.6147 35.8833 95.3207 35.7317 95.0547 35.531C94.7887 35.3303 94.574 35.083 94.4107 34.789C94.252 34.495 94.1727 34.1543 94.1727 33.767V28.762H96.2167V33.508C96.2167 33.844 96.3263 34.1193 96.5457 34.334C96.765 34.5487 97.087 34.656 97.5117 34.656C97.913 34.656 98.2303 34.5533 98.4637 34.348C98.7017 34.138 98.8207 33.8463 98.8207 33.473V28.762H100.844V36H99.3037L99.0657 34.565C98.9817 34.9897 98.823 35.3163 98.5897 35.545C98.361 35.769 98.0973 35.923 97.7987 36.007C97.5047 36.0957 97.2153 36.14 96.9307 36.14ZM106.918 30.183H105.308L105.322 34.04C105.322 34.2173 105.343 34.3503 105.385 34.439C105.431 34.523 105.501 34.579 105.595 34.607C105.693 34.6303 105.816 34.642 105.966 34.642H106.939V35.902C106.845 35.944 106.698 35.9837 106.498 36.021C106.302 36.0583 106.026 36.077 105.672 36.077C105.037 36.077 104.545 35.9953 104.195 35.832C103.849 35.6687 103.609 35.44 103.474 35.146C103.338 34.852 103.271 34.5113 103.271 34.124V30.183H102.095V28.762H103.341L103.852 26.578H105.308V28.755H106.918V30.183ZM110.486 28.762V36H108.533V28.762H110.486ZM110.507 25.885V27.726H108.519V25.885H110.507ZM115.446 36.14C114.737 36.14 114.118 35.9883 113.591 35.685C113.068 35.3817 112.662 34.9523 112.373 34.397C112.088 33.8417 111.946 33.1837 111.946 32.423C111.946 31.6623 112.088 30.9973 112.373 30.428C112.662 29.8587 113.068 29.4153 113.591 29.098C114.118 28.7807 114.739 28.622 115.453 28.622C116.167 28.622 116.785 28.7783 117.308 29.091C117.831 29.399 118.234 29.8377 118.519 30.407C118.804 30.9763 118.946 31.6483 118.946 32.423C118.946 33.151 118.806 33.795 118.526 34.355C118.251 34.9103 117.852 35.3467 117.329 35.664C116.811 35.9813 116.183 36.14 115.446 36.14ZM115.453 34.621C115.812 34.621 116.102 34.516 116.321 34.306C116.54 34.096 116.699 33.8207 116.797 33.48C116.9 33.1347 116.951 32.759 116.951 32.353C116.951 31.9703 116.904 31.6087 116.811 31.268C116.722 30.9273 116.568 30.652 116.349 30.442C116.13 30.232 115.831 30.127 115.453 30.127C115.094 30.127 114.802 30.2273 114.578 30.428C114.359 30.624 114.198 30.8923 114.095 31.233C113.992 31.569 113.941 31.9423 113.941 32.353C113.941 32.731 113.988 33.095 114.081 33.445C114.174 33.7903 114.331 34.0727 114.55 34.292C114.769 34.5113 115.07 34.621 115.453 34.621ZM120.309 36V28.762H122.318V29.784C122.43 29.6067 122.574 29.4363 122.752 29.273C122.934 29.105 123.162 28.9673 123.438 28.86C123.713 28.7527 124.04 28.699 124.418 28.699C124.861 28.699 125.274 28.7853 125.657 28.958C126.044 29.1307 126.357 29.4037 126.595 29.777C126.833 30.1457 126.952 30.6287 126.952 31.226V36H124.908V31.478C124.908 31.086 124.791 30.792 124.558 30.596C124.324 30.4 124.04 30.302 123.704 30.302C123.48 30.302 123.263 30.3417 123.053 30.421C122.847 30.5003 122.679 30.6193 122.549 30.778C122.418 30.9367 122.353 31.1327 122.353 31.366V36H120.309Z" fill="#0D2A66"/>
<line x1="66.5" x2="66.5" y2="17" stroke="white" stroke-width="9"/>
<line x1="66.5" y1="45" x2="66.5" y2="62" stroke="white" stroke-width="9"/>
<line x1="4.5" x2="4.5" y2="62" stroke="white" stroke-width="9"/>
<line y1="4.5" x2="71" y2="4.5" stroke="white" stroke-width="9"/>
<line y1="57.5" x2="71" y2="57.5" stroke="white" stroke-width="9"/>
<line x1="2" y1="4.5" x2="69" y2="4.5" stroke="#0D2A66" stroke-width="5"/>
<line x1="2" y1="57.5" x2="69" y2="57.5" stroke="#0D2A66" stroke-width="5"/>
<line x1="66.5" y1="7" x2="66.5" y2="15" stroke="#0D2A66" stroke-width="5"/>
<line x1="66.5" y1="47" x2="66.5" y2="55" stroke="#0D2A66" stroke-width="5"/>
<line x1="4.5" y1="7" x2="4.5" y2="55" stroke="#0D2A66" stroke-width="5"/>
</svg>
